<svg width="742" height="299" viewBox="0 0 742 299" fill="none" xmlns="http://www.w3.org/2000/svg">
<g clip-path="url(#clip0_9_2)">
<path d="M50 76V58.75C50 28.5124 74.5124 4 104.75 4V4C134.988 4 159.5 28.5124 159.5 58.75V76" stroke="#7D02B6" stroke-width="5"/>
<path d="M4 271.5V76H179.5V271.5H4Z" fill="#C13FFE"/>
<path d="M4 76L32 58H206L180 76H4Z" fill="#650392"/>
<path d="M179 272V76L205.626 58.2496V254.25L179 272Z" fill="#7D02B6"/>
<path d="M42 76V58.75C42 28.5124 66.5124 4 96.75 4V4C126.988 4 151.5 28.5124 151.5 58.75V76" stroke="#C13FFE" stroke-width="5"/>
<path d="M134.045 152C132.483 147.218 130.423 142.933 127.866 139.145C125.357 135.31 122.35 132.043 118.847 129.344C115.39 126.645 111.46 124.585 107.057 123.165C102.653 121.744 97.8239 121.034 92.5682 121.034C83.9508 121.034 76.1146 123.259 69.0597 127.71C62.0047 132.161 56.3939 138.719 52.2273 147.384C48.0606 156.048 45.9773 166.678 45.9773 179.273C45.9773 191.867 48.0843 202.497 52.2983 211.162C56.5123 219.827 62.2178 226.384 69.4148 230.835C76.6117 235.286 84.7083 237.511 93.7045 237.511C102.038 237.511 109.377 235.736 115.722 232.185C122.114 228.586 127.085 223.52 130.636 216.986C134.235 210.404 136.034 202.663 136.034 193.761L141.432 194.898H97.6818V179.273H153.08V194.898C153.08 206.877 150.523 217.294 145.409 226.148C140.343 235.002 133.335 241.867 124.386 246.744C115.485 251.574 105.258 253.989 93.7045 253.989C80.8258 253.989 69.5095 250.958 59.7557 244.898C50.0492 238.837 42.4735 230.22 37.0284 219.045C31.6307 207.871 28.9318 194.614 28.9318 179.273C28.9318 167.767 30.4706 157.421 33.5483 148.236C36.6733 139.003 41.0767 131.143 46.7585 124.656C52.4403 118.17 59.1638 113.198 66.929 109.741C74.6941 106.285 83.2405 104.557 92.5682 104.557C100.239 104.557 107.388 105.717 114.017 108.037C120.693 110.31 126.635 113.553 131.844 117.767C137.099 121.934 141.479 126.929 144.983 132.753C148.487 138.529 150.902 144.945 152.227 152H134.045Z" fill="#BABABA"/>
<path d="M128.045 152C126.483 147.218 124.423 142.933 121.866 139.145C119.357 135.31 116.35 132.043 112.847 129.344C109.39 126.645 105.46 124.585 101.057 123.165C96.6534 121.744 91.8239 121.034 86.5682 121.034C77.9508 121.034 70.1146 123.259 63.0597 127.71C56.0047 132.161 50.3939 138.719 46.2273 147.384C42.0606 156.048 39.9773 166.678 39.9773 179.273C39.9773 191.867 42.0843 202.497 46.2983 211.162C50.5123 219.827 56.2178 226.384 63.4148 230.835C70.6117 235.286 78.7083 237.511 87.7045 237.511C96.0379 237.511 103.377 235.736 109.722 232.185C116.114 228.586 121.085 223.52 124.636 216.986C128.235 210.404 130.034 202.663 130.034 193.761L135.432 194.898H91.6818V179.273H147.08V194.898C147.08 206.877 144.523 217.294 139.409 226.148C134.343 235.002 127.335 241.867 118.386 246.744C109.485 251.574 99.2576 253.989 87.7045 253.989C74.8258 253.989 63.5095 250.958 53.7557 244.898C44.0492 238.837 36.4735 230.22 31.0284 219.045C25.6307 207.871 22.9318 194.614 22.9318 179.273C22.9318 167.767 24.4706 157.421 27.5483 148.236C30.6733 139.003 35.0767 131.143 40.7585 124.656C46.4403 118.17 53.1638 113.198 60.929 109.741C68.6941 106.285 77.2405 104.557 86.5682 104.557C94.2386 104.557 101.388 105.717 108.017 108.037C114.693 110.31 120.635 113.553 125.844 117.767C131.099 121.934 135.479 126.929 138.983 132.753C142.487 138.529 144.902 144.945 146.227 152H128.045Z" fill="white"/>
<path d="M126.738 277.122L113.821 191.259C113.154 186.831 118.197 183.827 121.774 186.522L189.116 237.261C192.485 239.799 191.391 245.111 187.294 246.112L164.598 251.657L186.504 287.508C187.888 289.774 187.26 292.726 185.074 294.232L177.577 299.397C175.196 301.038 171.925 300.323 170.445 297.839L149.228 262.217L135.608 279.476C132.896 282.912 127.39 281.451 126.738 277.122Z" fill="#201F1F"/>
<path d="M126.738 275.122L113.821 189.259C113.154 184.831 118.197 181.827 121.774 184.522L189.116 235.261C192.485 237.799 191.391 243.111 187.294 244.112L164.598 249.657L186.504 285.508C187.888 287.774 187.26 290.726 185.074 292.232L177.577 297.397C175.196 299.038 171.925 298.323 170.445 295.839L149.228 260.217L135.608 277.476C132.896 280.912 127.39 279.451 126.738 275.122Z" fill="#3A3939"/>
<path d="M256.38 250.08C251.06 250.08 245.53 248.89 239.79 246.51C234.19 244.27 230.2 240.63 227.82 235.59C226.84 233.77 226.21 231.81 225.93 229.71C225.79 227.75 225.72 225.79 225.72 223.83V221.52C225.72 220.4 225.86 219.35 226.14 218.37C226.42 217.53 227.12 217.11 228.24 217.11C228.52 217.11 228.66 217.25 228.66 217.53C228.66 218.37 228.59 219.21 228.45 220.05C228.31 220.89 228.24 221.8 228.24 222.78C228.24 229.22 230.27 234.12 234.33 237.48C238.53 240.84 243.71 242.52 249.87 242.52C258.69 242.52 266.81 240.35 274.23 236.01C281.65 231.67 288.37 225.72 294.39 218.16C300.27 210.88 305.03 203.74 308.67 196.74C312.45 189.88 315.74 182.88 318.54 175.74C321.34 168.6 324.21 161.25 327.15 153.69C323.51 159.15 318.47 164.19 312.03 168.81C305.59 173.29 298.59 176.86 291.03 179.52C283.61 182.32 276.4 183.72 269.4 183.72C261.98 183.72 254.98 182.39 248.4 179.73C241.96 177.21 236.78 173.36 232.86 168.18C228.94 163 226.98 156.49 226.98 148.65C226.98 139.55 228.73 130.66 232.23 121.98C235.73 113.3 240.42 105.25 246.3 97.83C252.18 90.27 258.76 83.76 266.04 78.3C272.48 73.4 279.9 69.41 288.3 66.33C296.84 63.25 305.31 61.71 313.71 61.71C317.21 61.71 320.5 61.99 323.58 62.55C326.66 62.97 329.81 63.95 333.03 65.49C335.83 66.75 338.07 68.36 339.75 70.32C341.43 72.14 342.27 74.24 342.27 76.62C342.27 76.9 342.27 77.25 342.27 77.67C342.27 78.09 342.2 78.44 342.06 78.72C341.5 80.96 340.17 83.55 338.07 86.49C336.11 89.29 334.57 92.23 333.45 95.31C333.31 95.87 332.54 96.36 331.14 96.78C329.74 97.06 329.18 96.92 329.46 96.36C330.58 94.54 331.42 92.3 331.98 89.64C332.68 86.98 333.03 84.32 333.03 81.66C333.03 79.7 332.82 77.88 332.4 76.2C332.12 74.38 331.56 72.84 330.72 71.58C329.32 69.06 327.15 67.31 324.21 66.33C321.27 65.35 318.12 64.86 314.76 64.86C311.54 64.86 308.32 65.21 305.1 65.91C301.88 66.61 299.08 67.38 296.7 68.22C288.58 71.16 280.81 75.78 273.39 82.08C266.81 87.82 260.93 94.47 255.75 102.03C250.71 109.59 246.72 117.36 243.78 125.34C240.84 133.32 239.37 140.95 239.37 148.23C239.37 155.65 240.77 161.67 243.57 166.29C246.51 170.91 250.36 174.34 255.12 176.58C259.88 178.68 264.99 179.73 270.45 179.73C281.79 179.73 291.73 177.14 300.27 171.96C308.95 166.64 316.3 159.71 322.32 151.17C328.34 142.63 332.96 133.46 336.18 123.66H314.55C312.87 123.66 310.56 123.8 307.62 124.08C304.68 124.22 301.67 124.71 298.59 125.55C295.51 126.25 292.92 127.44 290.82 129.12C288.72 130.8 287.67 133.11 287.67 136.05C287.67 137.03 287.81 138.08 288.09 139.2C288.37 140.18 288.58 140.95 288.72 141.51L286.83 142.77C285.85 140.95 284.66 139.06 283.26 137.1C282 135 281.3 133.32 281.16 132.06C281.02 130.94 281.09 129.47 281.37 127.65C281.65 125.83 282.56 124.22 284.1 122.82C285.78 121.28 288.16 120.3 291.24 119.88C294.46 119.32 297.75 119.04 301.11 119.04C304.19 119.04 307.13 119.18 309.93 119.46C312.73 119.6 314.97 119.67 316.65 119.67H356.55L354.24 122.19C352.28 122.19 350.11 122.54 347.73 123.24C345.35 123.8 343.39 125.06 341.85 127.02C338.77 130.94 336.39 135.35 334.71 140.25C333.17 145.15 331.56 150.33 329.88 155.79C327.08 165.73 324.35 175.46 321.69 184.98C319.03 194.64 315.46 203.74 310.98 212.28C306.64 220.96 300.27 228.94 291.87 236.22C287.39 240 281.79 243.22 275.07 245.88C268.35 248.68 262.12 250.08 256.38 250.08ZM359.106 178.68C353.366 178.68 349.376 177.56 347.136 175.32C344.896 173.08 343.776 170.35 343.776 167.13C343.776 163.07 344.826 158.73 346.926 154.11C349.166 149.49 351.266 145.57 353.226 142.35C355.466 138.99 358.476 135.49 362.256 131.85C366.036 128.21 370.166 125.13 374.646 122.61C379.126 120.09 383.466 118.83 387.666 118.83C391.306 118.83 393.826 119.74 395.226 121.56C396.626 123.24 397.326 125.27 397.326 127.65C397.326 131.99 395.996 135.56 393.336 138.36C390.816 141.16 387.666 143.47 383.886 145.29C380.106 146.97 376.466 148.37 372.966 149.49C370.866 150.05 368.416 150.61 365.616 151.17C362.816 151.73 360.156 152.01 357.636 152.01C356.656 154.53 355.886 156.98 355.326 159.36C354.766 161.74 354.486 163.91 354.486 165.87C354.486 168.25 355.046 170.21 356.166 171.75C357.426 173.29 359.456 174.06 362.256 174.06C363.376 174.06 364.706 173.92 366.246 173.64C367.786 173.36 369.466 172.94 371.286 172.38C375.486 170.98 379.616 168.74 383.676 165.66C387.736 162.58 391.446 159.29 394.806 155.79C398.306 152.15 400.966 149.14 402.786 146.76C403.206 147.18 403.416 147.67 403.416 148.23C403.416 148.93 402.926 150.05 401.946 151.59C399.146 155.51 395.506 159.57 391.026 163.77C386.546 167.97 381.576 171.54 376.116 174.48C370.656 177.28 364.986 178.68 359.106 178.68ZM359.316 147.81C361.136 147.95 363.166 147.95 365.406 147.81C367.786 147.53 370.096 147.04 372.336 146.34C378.076 144.66 382.206 142 384.726 138.36C387.386 134.58 388.716 131.22 388.716 128.28C388.716 126.6 388.366 125.2 387.666 124.08C386.966 122.96 385.846 122.4 384.306 122.4C380.246 122.4 376.606 123.94 373.386 127.02C370.166 129.96 367.366 133.39 364.986 137.31C362.606 141.23 360.716 144.73 359.316 147.81ZM416.651 178.26C414.691 178.26 413.011 177.56 411.611 176.16C410.211 174.76 409.511 172.31 409.511 168.81C409.511 165.73 409.721 162.09 410.141 157.89C410.701 153.69 411.471 149.42 412.451 145.08C413.431 140.6 414.551 136.68 415.811 133.32C413.431 136.82 410.771 140.46 407.831 144.24C404.891 147.88 402.441 150.96 400.481 153.48C400.061 154.04 399.711 154.32 399.431 154.32C399.151 154.32 399.011 153.97 399.011 153.27C399.011 152.15 399.361 151.1 400.061 150.12C403.001 146.06 406.291 141.44 409.931 136.26C413.711 131.08 416.931 126.39 419.591 122.19C421.131 121.91 422.951 121.49 425.051 120.93C427.291 120.37 428.901 119.6 429.881 118.62C430.581 118.2 431.001 117.99 431.141 117.99C431.561 117.99 431.771 118.27 431.771 118.83C431.771 119.25 431.561 119.74 431.141 120.3C429.881 122.12 428.481 124.92 426.941 128.7C425.541 132.48 424.071 136.68 422.531 141.3C421.131 145.92 419.941 150.47 418.961 154.95C418.121 159.29 417.701 163 417.701 166.08C417.701 168.32 418.051 169.93 418.751 170.91C419.451 171.75 420.361 172.17 421.481 172.17C423.021 172.17 424.841 171.4 426.941 169.86C429.181 168.32 431.071 166.71 432.611 165.03C434.571 162.93 436.741 160.13 439.121 156.63C441.641 153.13 443.951 149.42 446.051 145.5C448.291 141.58 449.971 138.01 451.091 134.79C451.931 132.55 452.491 130.66 452.771 129.12C453.051 127.44 453.191 126.11 453.191 125.13C453.191 123.45 452.981 122.26 452.561 121.56C452.141 120.86 451.791 120.44 451.511 120.3C450.671 120.02 450.251 119.67 450.251 119.25C450.251 118.97 450.531 118.76 451.091 118.62C451.651 118.34 452.211 118.34 452.771 118.62C454.591 119.18 456.411 120.02 458.231 121.14C460.051 122.12 460.961 124.08 460.961 127.02C460.961 127.72 460.891 128.56 460.751 129.54C460.611 130.38 460.331 131.36 459.911 132.48C459.071 134.72 457.321 137.87 454.661 141.93C452.141 145.99 449.201 150.26 445.841 154.74C442.481 159.22 439.121 163.28 435.761 166.92C432.401 170.56 429.461 173.15 426.941 174.69C425.261 175.67 423.511 176.51 421.691 177.21C419.871 177.91 418.191 178.26 416.651 178.26ZM394.59 250.5C389.27 250.5 384.16 249.24 379.26 246.72C374.22 244.34 370.51 240.63 368.13 235.59C367.29 233.77 366.73 231.81 366.45 229.71C366.17 227.75 366.03 225.79 366.03 223.83V221.52C366.03 220.4 366.17 219.35 366.45 218.37C366.73 217.53 367.43 217.11 368.55 217.11C368.97 217.11 369.18 217.25 369.18 217.53C369.18 218.37 369.11 219.21 368.97 220.05C368.69 220.89 368.55 221.8 368.55 222.78C368.55 229.22 370.65 234.12 374.85 237.48C378.91 240.84 384.02 242.52 390.18 242.52C392.7 242.52 395.29 242.24 397.95 241.68C400.61 241.12 403.13 240.35 405.51 239.37C414.33 235.59 422.03 230.27 428.61 223.41C435.19 216.55 440.93 208.78 445.83 200.1C450.73 191.42 455.07 182.53 458.85 173.43C462.91 163.49 466.76 153.69 470.4 144.03C474.18 134.23 478.38 124.64 483 115.26C487.34 106.58 491.96 100.07 496.86 95.73C501.76 91.39 506.66 89.22 511.56 89.22C512.82 89.22 514.01 89.57 515.13 90.27C516.39 90.97 516.95 92.09 516.81 93.63L516.39 99.51C516.39 99.93 516.11 100.14 515.55 100.14C515.55 100.14 515.48 100.14 515.34 100.14C515.34 100.14 515.34 100.07 515.34 99.93C515.34 98.25 514.71 97.13 513.45 96.57C512.33 95.87 511.21 95.52 510.09 95.52C505.33 95.52 501.06 97.2 497.28 100.56C493.64 103.78 490.42 107.98 487.62 113.16C484.82 118.34 482.44 123.8 480.48 129.54C478.52 135.14 476.91 140.32 475.65 145.08C476.63 144.24 478.38 142.49 480.9 139.83C483.56 137.17 486.64 134.3 490.14 131.22C493.64 128.14 497.21 125.48 500.85 123.24C504.49 121 507.85 119.88 510.93 119.88C512.75 119.88 513.8 120.72 514.08 122.4C514.5 123.94 514.57 125.41 514.29 126.81C513.59 131.99 511.84 137.59 509.04 143.61C506.24 149.63 502.6 155.37 498.12 160.83C493.78 166.15 488.88 170.49 483.42 173.85C478.1 177.21 472.5 178.89 466.62 178.89C465.92 178.89 464.94 178.82 463.68 178.68C462.56 178.68 461.86 178.54 461.58 178.26C458.64 187.08 454.86 196.11 450.24 205.35C445.62 214.59 440.09 222.92 433.65 230.34C427.07 237.9 419.3 243.57 410.34 247.35C405.58 249.45 400.33 250.5 394.59 250.5ZM469.77 175.32C471.87 175.32 474.25 174.48 476.91 172.8C479.71 170.98 481.81 169.37 483.21 167.97C484.89 166.43 486.85 164.05 489.09 160.83C491.47 157.47 493.78 153.83 496.02 149.91C498.4 145.99 500.36 142.21 501.9 138.57C503.44 134.93 504.21 131.99 504.21 129.75C504.21 129.05 504.07 128.42 503.79 127.86C503.51 127.3 503.02 127.02 502.32 127.02C501.06 127.02 499.38 127.79 497.28 129.33C495.18 130.87 492.94 132.76 490.56 135C488.32 137.1 486.22 139.2 484.26 141.3C482.3 143.26 480.9 144.73 480.06 145.71C478.66 147.39 476.77 149.84 474.39 153.06C472.01 156.28 469.91 159.57 468.09 162.93C466.27 166.15 465.36 168.88 465.36 171.12C465.36 173.92 466.83 175.32 469.77 175.32ZM518.045 177.42C515.805 177.42 513.775 177 511.955 176.16C510.275 175.18 509.435 173.15 509.435 170.07C509.435 165.17 510.695 160.27 513.215 155.37C515.735 150.33 518.325 145.92 520.985 142.14C523.365 138.92 526.025 135.91 528.965 133.11C532.045 130.17 535.335 127.65 538.835 125.55C541.075 124.15 544.085 122.68 547.865 121.14C551.785 119.46 555.075 118.62 557.735 118.62C559.975 118.62 561.935 119.25 563.615 120.51C565.295 121.63 566.135 123.73 566.135 126.81C566.135 131.57 564.875 136.47 562.355 141.51C559.975 146.41 557.455 150.75 554.795 154.53C553.535 156.21 552.275 157.82 551.015 159.36C549.755 160.76 548.355 162.23 546.815 163.77C551.995 163.77 556.755 162.3 561.095 159.36C565.435 156.28 569.215 152.57 572.435 148.23L572.855 147.81C573.275 147.81 573.485 148.23 573.485 149.07C573.485 150.05 573.205 150.96 572.645 151.8C569.845 155.72 566.345 159.22 562.145 162.3C557.945 165.24 553.185 166.71 547.865 166.71C547.305 166.71 546.745 166.71 546.185 166.71C545.625 166.71 545.065 166.64 544.505 166.5C536.665 173.78 527.845 177.42 518.045 177.42ZM523.505 173.85C525.465 173.85 527.565 173.15 529.805 171.75C532.185 170.35 534.005 169.02 535.265 167.76C537.645 165.38 539.815 162.86 541.775 160.2C543.735 157.4 545.555 154.6 547.235 151.8C549.195 148.44 551.155 144.45 553.115 139.83C555.075 135.21 556.055 130.87 556.055 126.81C556.055 123.59 554.935 121.98 552.695 121.98C550.875 121.98 548.635 122.75 545.975 124.29C543.455 125.83 541.565 127.23 540.305 128.49C535.545 133.39 531.555 138.71 528.335 144.45C526.515 147.67 524.555 151.45 522.455 155.79C520.355 160.13 519.305 164.12 519.305 167.76C519.305 168.32 519.305 168.88 519.305 169.44C519.445 169.86 519.585 170.35 519.725 170.91C520.285 172.87 521.545 173.85 523.505 173.85ZM613.941 96.78C611.981 96.78 610.581 96.15 609.741 94.89C609.181 94.19 608.901 93.28 608.901 92.16C608.901 89.92 609.951 88.1 612.051 86.7C613.591 85.86 614.991 85.44 616.251 85.44C618.351 85.44 619.821 86.07 620.661 87.33C621.221 88.03 621.501 88.94 621.501 90.06C621.501 92.3 620.381 94.12 618.141 95.52C616.881 96.36 615.481 96.78 613.941 96.78ZM577.401 177.63C576.001 177.63 574.811 177.35 573.831 176.79C572.991 176.23 572.571 175.18 572.571 173.64C572.571 171.68 573.061 169.37 574.041 166.71C575.161 164.05 576.351 161.39 577.611 158.73C579.011 156.07 580.061 153.9 580.761 152.22C581.741 150.26 582.931 147.74 584.331 144.66C585.871 141.44 587.271 138.43 588.531 135.63C589.931 132.69 590.911 130.66 591.471 129.54C589.511 131.64 587.131 134.3 584.331 137.52C581.671 140.6 579.151 143.61 576.771 146.55C574.391 149.49 572.571 151.8 571.311 153.48C570.891 154.04 570.541 154.32 570.261 154.32C569.981 154.32 569.841 153.97 569.841 153.27C569.841 152.15 570.191 151.1 570.891 150.12C573.551 146.76 576.491 142.98 579.711 138.78C583.071 134.58 586.081 130.73 588.741 127.23C591.401 123.59 593.081 121.21 593.781 120.09C595.321 119.81 597.561 119.39 600.501 118.83C603.581 118.27 605.681 117.5 606.801 116.52C607.221 116.1 607.641 115.89 608.061 115.89C608.341 115.89 608.481 116.17 608.481 116.73C608.621 117.15 608.481 117.64 608.061 118.2C607.221 119.18 605.751 121.56 603.651 125.34C601.551 129.12 599.311 133.32 596.931 137.94C594.691 142.42 592.591 146.48 590.631 150.12C588.671 153.9 586.991 157.54 585.591 161.04C584.191 164.54 583.491 167.06 583.491 168.6C583.491 170.56 584.471 171.54 586.431 171.54C588.251 171.54 590.561 170.42 593.361 168.18C596.301 165.94 599.241 163.28 602.181 160.2C605.121 156.98 607.711 154.04 609.951 151.38C610.651 150.54 611.491 149.56 612.471 148.44C613.591 147.18 614.291 146.41 614.571 146.13C614.851 146.41 614.991 146.9 614.991 147.6C614.851 148.58 614.501 149.56 613.941 150.54C613.381 151.38 612.821 152.15 612.261 152.85C609.321 156.49 606.101 160.27 602.601 164.19C599.101 167.97 595.251 171.19 591.051 173.85C586.851 176.37 582.301 177.63 577.401 177.63ZM611.921 180.15C611.361 180.15 611.361 179.52 611.921 178.26C612.621 177 613.251 175.6 613.811 174.06C614.511 172.52 615.211 170.84 615.911 169.02C617.311 165.66 618.851 161.88 620.531 157.68C622.211 153.48 623.821 149.42 625.361 145.5C626.901 141.44 628.231 138.01 629.351 135.21C630.611 132.27 631.451 130.38 631.871 129.54C629.911 131.64 627.531 134.3 624.731 137.52C622.071 140.6 619.551 143.61 617.171 146.55C614.791 149.49 612.971 151.8 611.711 153.48C611.291 154.04 610.941 154.32 610.661 154.32C610.381 154.32 610.241 153.97 610.241 153.27C610.241 152.15 610.591 151.1 611.291 150.12C613.951 146.76 616.891 142.98 620.111 138.78C623.471 134.58 626.481 130.73 629.141 127.23C631.801 123.59 633.481 121.21 634.181 120.09C635.721 119.81 637.961 119.39 640.901 118.83C643.981 118.27 646.081 117.5 647.201 116.52C647.621 116.1 648.041 115.89 648.461 115.89C648.741 115.89 648.881 116.17 648.881 116.73C649.021 117.15 648.881 117.64 648.461 118.2C647.621 119.18 646.151 121.49 644.051 125.13C642.091 128.63 639.921 132.55 637.541 136.89C635.301 141.23 633.201 145.15 631.241 148.65C632.921 146.41 634.741 144.24 636.701 142.14C638.661 140.04 640.551 138.01 642.371 136.05C644.051 134.37 646.361 132.27 649.301 129.75C652.241 127.23 655.321 124.92 658.541 122.82C661.761 120.72 664.561 119.53 666.941 119.25C667.501 119.11 667.991 119.04 668.411 119.04C668.971 119.04 669.391 119.04 669.671 119.04C672.751 119.04 674.291 120.16 674.291 122.4C674.291 124.08 673.381 126.32 671.561 129.12C670.581 130.66 669.041 133.25 666.941 136.89C664.981 140.39 662.951 144.24 660.851 148.44C658.891 152.5 657.141 156.35 655.601 159.99C654.201 163.49 653.501 166.08 653.501 167.76C653.501 169.72 654.481 170.7 656.441 170.7C658.821 170.7 661.411 169.51 664.211 167.13C667.151 164.75 670.301 161.74 673.661 158.1C677.021 154.32 680.381 150.33 683.741 146.13C684.021 146.41 684.161 146.9 684.161 147.6C684.161 148.58 683.811 149.56 683.111 150.54C682.551 151.38 681.991 152.15 681.431 152.85C680.031 154.67 678.141 156.98 675.761 159.78C673.521 162.44 671.211 165.1 668.831 167.76C666.451 170.28 664.281 172.31 662.321 173.85C660.921 174.83 659.101 175.88 656.861 177C654.621 178.12 652.381 178.68 650.141 178.68C647.621 178.68 645.871 178.05 644.891 176.79C643.911 175.39 643.421 173.71 643.421 171.75C643.421 169.51 643.841 167.13 644.681 164.61C645.521 162.09 646.431 159.71 647.411 157.47C648.531 155.09 649.371 153.34 649.931 152.22C652.451 147.32 654.761 142.7 656.861 138.36C658.961 134.02 660.431 130.94 661.271 129.12C661.691 128.28 661.901 127.58 661.901 127.02C661.901 126.04 661.131 125.97 659.591 126.81C658.051 127.65 656.161 128.91 653.921 130.59C651.821 132.27 649.861 133.95 648.041 135.63C646.221 137.17 645.031 138.22 644.471 138.78C639.291 144.24 634.741 150.33 630.821 157.05C627.041 163.63 623.821 170.42 621.161 177.42C619.341 177.56 617.521 178.05 615.701 178.89C613.881 179.73 612.621 180.15 611.921 180.15ZM688.378 177.63C686.978 177.63 685.788 177.35 684.808 176.79C683.828 176.23 683.338 175.18 683.338 173.64C683.338 171.68 683.828 169.37 684.808 166.71C685.928 164.05 687.118 161.39 688.378 158.73C689.638 156.07 690.688 153.9 691.528 152.22C692.228 150.96 693.138 149 694.258 146.34C695.518 143.54 696.778 140.67 698.038 137.73C699.438 134.65 700.558 132.06 701.398 129.96C702.378 127.86 702.868 126.81 702.868 126.81C701.608 128.21 699.928 130.17 697.828 132.69C695.868 135.21 693.698 137.87 691.318 140.67C689.078 143.33 686.978 145.85 685.018 148.23C683.198 150.61 681.868 152.36 681.028 153.48C680.608 154.04 680.258 154.32 679.978 154.32C679.698 154.32 679.558 153.97 679.558 153.27C679.558 152.15 679.908 151.1 680.608 150.12C682.288 148.02 684.318 145.5 686.698 142.56C689.078 139.48 691.458 136.4 693.838 133.32C696.358 130.24 698.528 127.51 700.348 125.13C699.228 125.13 697.758 125.2 695.938 125.34C694.258 125.48 692.718 125.69 691.318 125.97C689.918 126.11 689.148 126.18 689.008 126.18C688.308 126.18 688.378 125.62 689.218 124.5C690.058 123.38 691.178 122.26 692.578 121.14C693.978 120.02 695.028 119.46 695.728 119.46C695.868 119.46 696.988 119.53 699.088 119.67C701.188 119.67 702.728 119.67 703.708 119.67C706.508 115.89 709.238 111.55 711.898 106.65C714.698 101.75 717.428 96.36 720.088 90.48C721.208 90.34 723.098 89.57 725.758 88.17C728.558 86.63 730.728 85.09 732.268 83.55C732.968 82.85 733.528 82.5 733.948 82.5C734.788 82.5 734.788 83.06 733.948 84.18C732.968 85.3 731.288 87.68 728.908 91.32C726.528 94.82 723.868 99.09 720.928 104.13C717.988 109.03 715.188 114.21 712.528 119.67H729.538C731.078 119.67 731.848 119.88 731.848 120.3C731.848 120.86 730.798 121.42 728.698 121.98C726.318 122.68 723.798 123.1 721.138 123.24C718.618 123.38 716.238 123.66 713.998 124.08C711.898 124.5 710.358 125.41 709.378 126.81C708.538 127.79 707.348 129.89 705.808 133.11C704.268 136.33 702.588 140.04 700.768 144.24C699.088 148.3 697.618 152.43 696.358 156.63C695.098 160.69 694.328 164.12 694.048 166.92V167.76C694.048 168.88 694.398 169.79 695.098 170.49C695.798 171.19 696.498 171.54 697.198 171.54C699.018 171.54 701.328 170.42 704.128 168.18C707.068 165.94 710.078 163.28 713.158 160.2C716.238 156.98 718.898 154.04 721.138 151.38C722.118 150.26 722.958 149.21 723.658 148.23C724.498 147.25 724.988 146.62 725.128 146.34C725.408 146.9 725.548 147.32 725.548 147.6C725.548 148.44 725.268 149.35 724.708 150.33C724.288 151.31 723.798 152.15 723.238 152.85C720.578 156.35 717.358 160.06 713.578 163.98C709.798 167.76 705.738 170.98 701.398 173.64C697.198 176.3 692.858 177.63 688.378 177.63Z" fill="#7D02B6"/>
<path d="M478.085 214.65V212.065H484.3C485.583 212.065 486.738 211.845 487.765 211.405C488.792 210.965 489.598 210.323 490.185 209.48C490.772 208.637 491.065 207.61 491.065 206.4C491.065 204.567 490.423 203.155 489.14 202.165C487.857 201.138 486.243 200.625 484.3 200.625H479.075V230.875H484.85C486.5 230.875 487.948 230.582 489.195 229.995C490.478 229.408 491.468 228.565 492.165 227.465C492.898 226.365 493.265 225.027 493.265 223.45C493.265 222.277 493.063 221.232 492.66 220.315C492.257 219.398 491.67 218.628 490.9 218.005C490.167 217.382 489.287 216.923 488.26 216.63C487.233 216.3 486.097 216.135 484.85 216.135H478.085V213.55H484.85C486.72 213.55 488.443 213.752 490.02 214.155C491.597 214.558 492.972 215.182 494.145 216.025C495.355 216.832 496.29 217.877 496.95 219.16C497.61 220.443 497.94 221.965 497.94 223.725C497.94 226.255 497.353 228.363 496.18 230.05C495.043 231.7 493.485 232.947 491.505 233.79C489.562 234.597 487.343 235 484.85 235H474.4V196.5H484.3C486.61 196.5 488.608 196.848 490.295 197.545C492.018 198.242 493.357 199.305 494.31 200.735C495.263 202.128 495.74 203.925 495.74 206.125C495.74 207.922 495.263 209.462 494.31 210.745C493.357 212.028 492.018 213 490.295 213.66C488.608 214.32 486.61 214.65 484.3 214.65H478.085ZM524.869 209.7L508.369 247.1H503.419L510.349 231.425L500.669 209.7H505.894L513.924 229.5L512.109 229.28L519.919 209.7H524.869ZM563.657 219.875V215.475H581.532C581.532 218.152 581.129 220.7 580.322 223.12C579.515 225.503 578.324 227.63 576.747 229.5C575.17 231.37 573.227 232.855 570.917 233.955C568.644 235.018 566.04 235.55 563.107 235.55C560.32 235.55 557.735 235.073 555.352 234.12C552.969 233.13 550.897 231.755 549.137 229.995C547.377 228.198 546.002 226.09 545.012 223.67C544.059 221.25 543.582 218.61 543.582 215.75C543.582 212.89 544.059 210.25 545.012 207.83C546.002 205.41 547.377 203.32 549.137 201.56C550.897 199.763 552.969 198.388 555.352 197.435C557.735 196.445 560.32 195.95 563.107 195.95C565.49 195.95 567.672 196.262 569.652 196.885C571.669 197.508 573.465 198.425 575.042 199.635C576.655 200.845 578.012 202.348 579.112 204.145L575.812 207.17C574.602 205.117 572.915 203.522 570.752 202.385C568.589 201.212 566.04 200.625 563.107 200.625C560.394 200.625 557.937 201.267 555.737 202.55C553.537 203.833 551.777 205.612 550.457 207.885C549.174 210.122 548.532 212.743 548.532 215.75C548.532 218.72 549.174 221.342 550.457 223.615C551.777 225.888 553.537 227.667 555.737 228.95C557.937 230.233 560.394 230.875 563.107 230.875C565.014 230.875 566.719 230.6 568.222 230.05C569.762 229.463 571.082 228.657 572.182 227.63C573.282 226.603 574.18 225.43 574.877 224.11C575.61 222.79 576.142 221.378 576.472 219.875H563.657ZM597.943 235.55C595.597 235.55 593.507 235 591.673 233.9C589.877 232.763 588.465 231.205 587.438 229.225C586.448 227.245 585.953 224.953 585.953 222.35C585.953 219.71 586.467 217.4 587.493 215.42C588.557 213.44 590.023 211.9 591.893 210.8C593.8 209.7 596 209.15 598.493 209.15C600.987 209.15 603.113 209.682 604.873 210.745C606.67 211.772 608.045 213.257 608.998 215.2C609.952 217.143 610.428 219.453 610.428 222.13C610.428 222.387 610.41 222.662 610.373 222.955C610.373 223.212 610.373 223.377 610.373 223.45H588.758V219.71H606.908L605.148 222.24C605.258 222.057 605.368 221.782 605.478 221.415C605.588 221.012 605.643 220.682 605.643 220.425C605.643 218.922 605.332 217.62 604.708 216.52C604.122 215.42 603.297 214.558 602.233 213.935C601.17 213.312 599.923 213 598.493 213C596.807 213 595.358 213.367 594.148 214.1C592.975 214.797 592.058 215.823 591.398 217.18C590.775 218.5 590.445 220.132 590.408 222.075C590.408 224.055 590.72 225.742 591.343 227.135C591.967 228.528 592.883 229.592 594.093 230.325C595.303 231.058 596.77 231.425 598.493 231.425C600.217 231.425 601.738 231.058 603.058 230.325C604.378 229.555 605.497 228.4 606.413 226.86L609.988 229.115C608.668 231.242 607 232.855 604.983 233.955C603.003 235.018 600.657 235.55 597.943 235.55ZM611.528 209.7H616.478L623.628 227.575L630.778 209.7H635.728L623.628 236.925L611.528 209.7ZM648.861 235.55C646.515 235.55 644.425 235 642.591 233.9C640.795 232.763 639.383 231.205 638.356 229.225C637.366 227.245 636.871 224.953 636.871 222.35C636.871 219.71 637.385 217.4 638.411 215.42C639.475 213.44 640.941 211.9 642.811 210.8C644.718 209.7 646.918 209.15 649.411 209.15C651.905 209.15 654.031 209.682 655.791 210.745C657.588 211.772 658.963 213.257 659.916 215.2C660.87 217.143 661.346 219.453 661.346 222.13C661.346 222.387 661.328 222.662 661.291 222.955C661.291 223.212 661.291 223.377 661.291 223.45H639.676V219.71H657.826L656.066 222.24C656.176 222.057 656.286 221.782 656.396 221.415C656.506 221.012 656.561 220.682 656.561 220.425C656.561 218.922 656.25 217.62 655.626 216.52C655.04 215.42 654.215 214.558 653.151 213.935C652.088 213.312 650.841 213 649.411 213C647.725 213 646.276 213.367 645.066 214.1C643.893 214.797 642.976 215.823 642.316 217.18C641.693 218.5 641.363 220.132 641.326 222.075C641.326 224.055 641.638 225.742 642.261 227.135C642.885 228.528 643.801 229.592 645.011 230.325C646.221 231.058 647.688 231.425 649.411 231.425C651.135 231.425 652.656 231.058 653.976 230.325C655.296 229.555 656.415 228.4 657.331 226.86L660.906 229.115C659.586 231.242 657.918 232.855 655.901 233.955C653.921 235.018 651.575 235.55 648.861 235.55ZM671.777 209.7V235H667.377V209.7H671.777ZM679.422 214.54C678.835 214.1 678.304 213.788 677.827 213.605C677.35 213.385 676.745 213.275 676.012 213.275C674.912 213.275 674.05 213.55 673.427 214.1C672.804 214.65 672.364 215.402 672.107 216.355C671.887 217.308 671.777 218.39 671.777 219.6H669.797C669.797 217.583 670.145 215.805 670.842 214.265C671.575 212.688 672.51 211.442 673.647 210.525C674.784 209.608 675.939 209.15 677.112 209.15C678.029 209.15 678.872 209.278 679.642 209.535C680.449 209.755 681.182 210.213 681.842 210.91L679.422 214.54ZM695.214 235.55C692.867 235.55 690.777 235 688.944 233.9C687.147 232.763 685.735 231.205 684.709 229.225C683.719 227.245 683.224 224.953 683.224 222.35C683.224 219.71 683.737 217.4 684.764 215.42C685.827 213.44 687.294 211.9 689.164 210.8C691.07 209.7 693.27 209.15 695.764 209.15C698.257 209.15 700.384 209.682 702.144 210.745C703.94 211.772 705.315 213.257 706.269 215.2C707.222 217.143 707.699 219.453 707.699 222.13C707.699 222.387 707.68 222.662 707.644 222.955C707.644 223.212 707.644 223.377 707.644 223.45H686.029V219.71H704.179L702.419 222.24C702.529 222.057 702.639 221.782 702.749 221.415C702.859 221.012 702.914 220.682 702.914 220.425C702.914 218.922 702.602 217.62 701.979 216.52C701.392 215.42 700.567 214.558 699.504 213.935C698.44 213.312 697.194 213 695.764 213C694.077 213 692.629 213.367 691.419 214.1C690.245 214.797 689.329 215.823 688.669 217.18C688.045 218.5 687.715 220.132 687.679 222.075C687.679 224.055 687.99 225.742 688.614 227.135C689.237 228.528 690.154 229.592 691.364 230.325C692.574 231.058 694.04 231.425 695.764 231.425C697.487 231.425 699.009 231.058 700.329 230.325C701.649 229.555 702.767 228.4 703.684 226.86L707.259 229.115C705.939 231.242 704.27 232.855 702.254 233.955C700.274 235.018 697.927 235.55 695.214 235.55ZM713.729 192.1H718.129V235H713.729V192.1Z" fill="#1E1E1E"/>
</g>
<defs>
<clipPath id="clip0_9_2">
<rect width="742" height="299" fill="white"/>
</clipPath>
</defs>
</svg>
